<svg width="500" height="500" viewBox="0 0 500 500" fill="none" xmlns="http://www.w3.org/2000/svg">
<g clip-path="url(#clip0_28303_2)">
<path d="M385 0H115C51.4873 0 0 51.4873 0 115V385C0 448.513 51.4873 500 115 500H385C448.513 500 500 448.513 500 385V115C500 51.4873 448.513 0 385 0Z" fill="url(#paint0_linear_28303_2)"/>
<path opacity="0.4" d="M250 465C368.741 465 465 368.741 465 250C465 131.259 368.741 35 250 35C131.259 35 35 131.259 35 250C35 368.741 131.259 465 250 465Z" stroke="#115E59" stroke-width="3"/>
<path opacity="0.2" d="M250 450C360.457 450 450 360.457 450 250C450 139.543 360.457 50 250 50C139.543 50 50 139.543 50 250C50 360.457 139.543 450 250 450Z" stroke="url(#paint1_linear_28303_2)" stroke-width="1.5" stroke-dasharray="8 12"/>
<path d="M339.257 370L324.109 358.288C317.233 346.471 309.391 336.447 300.581 328.217C291.986 319.776 282.424 312.707 271.896 307.009L278.664 287.384C287.474 292.66 295.854 299.202 303.804 307.009C311.754 314.817 319.06 325.263 325.721 338.346L323.464 343.411V185.46H123.636L113 169H365.042L376 185.46H340.869V369.683L339.257 370ZM230.319 336.447C220.65 336.447 211.088 334.654 201.634 331.066C192.179 327.268 183.047 320.937 174.238 312.074C165.643 303 157.371 290.55 149.42 274.723C141.685 258.685 134.487 238.532 127.826 214.265L141.363 210.15C148.883 234.206 156.941 253.409 165.536 267.759C174.345 281.898 183.799 292.027 193.898 298.146C204.212 304.266 215.385 307.326 227.418 307.326C242.459 307.326 254.169 303.844 262.549 296.88C270.929 289.706 274.689 279.471 273.83 266.176C273.4 257.946 271.681 251.299 268.673 246.235C265.879 240.959 262.442 237.055 258.359 234.523C254.277 231.991 250.194 230.724 246.112 230.724C243.318 230.724 240.847 231.041 238.699 231.674C236.55 232.096 233.864 233.046 230.641 234.523C229.567 225.871 227.525 218.38 224.517 212.049C221.724 205.718 217.319 200.231 211.303 195.589C205.501 190.946 197.444 187.043 187.13 183.877L222.261 183.244C226.344 186.62 230.211 191.052 233.864 196.539C237.732 201.814 240.847 207.723 243.211 214.265C245.574 220.806 246.756 227.77 246.756 235.156C246.756 244.23 244.178 251.827 239.021 257.946C234.079 264.066 226.988 267.126 217.749 267.126C209.154 267.126 201.741 264.488 195.51 259.213C189.493 253.937 186.485 246.551 186.485 237.055C186.485 226.082 190.353 217.957 198.088 212.682C205.824 207.195 215.385 204.452 226.773 204.452C240.74 204.452 252.45 207.617 261.904 213.948C271.574 220.068 278.772 228.087 283.499 238.005C288.441 247.923 290.912 258.58 290.912 269.975C290.912 278.627 289.837 286.962 287.689 294.981C285.54 302.789 282.102 309.858 277.375 316.189C272.648 322.52 266.417 327.479 258.681 331.066C250.946 334.654 241.492 336.447 230.319 336.447Z" fill="url(#paint2_linear_28303_2)"/>
<path d="M398 169C401.866 169 405 165.866 405 162C405 158.134 401.866 155 398 155C394.134 155 391 158.134 391 162C391 165.866 394.134 169 398 169Z" fill="white"/>
<path opacity="0.5" d="M398 177C406.284 177 413 170.284 413 162C413 153.716 406.284 147 398 147C389.716 147 383 153.716 383 162C383 170.284 389.716 177 398 177Z" stroke="#2DD4BF" stroke-width="2"/>
</g>
<defs>
<linearGradient id="paint0_linear_28303_2" x1="0" y1="0" x2="500" y2="500" gradientUnits="userSpaceOnUse">
<stop stop-color="#042F2E"/>
<stop offset="1" stop-color="#0F172A"/>
</linearGradient>
<linearGradient id="paint1_linear_28303_2" x1="50" y1="50" x2="450" y2="450" gradientUnits="userSpaceOnUse">
<stop stop-color="#FBBF24"/>
<stop offset="0.5" stop-color="#F59E0B"/>
<stop offset="1" stop-color="#2DD4BF"/>
</linearGradient>
<linearGradient id="paint2_linear_28303_2" x1="113" y1="169" x2="306.948" y2="422.773" gradientUnits="userSpaceOnUse">
<stop stop-color="#FBBF24"/>
<stop offset="0.5" stop-color="#F59E0B"/>
<stop offset="1" stop-color="#2DD4BF"/>
</linearGradient>
<clipPath id="clip0_28303_2">
<rect width="500" height="500" fill="white"/>
</clipPath>
</defs>
</svg>
